<svg xmlns="http://www.w3.org/2000/svg" viewBox="0 0 1680 438"><path d="M0 0h1680v438H0z" fill="transparent"/><path d="M1382.047 10.522c12.142 2.012 23.302 8.934 30.456 18.954 6.179 8.596 10.04 19.365 14.5 28.926.61 2.013 3.38 1.754 5.034 2.243 10.86 1.631 21.107 6.274 30.381 12.024 6.429 4.35 12.156 9.851 17.19 15.742 6.46 7.159 10.818 16.633 14.084 25.625 2.126 5.791 2.59 11.703 3.215 17.778.579 5.297.558 10.608.273 15.922a191 191 0 0 1 5.675-2.396c10.755-4.508 21.445-7.657 33.05-9.076 10.64-2.225 21.261-1.97 32.061-1.476 7.514 1.147 15.13 2.183 22.49 4.117 17.633 5.16 33.77 14.796 45.818 28.776 5.86 6.811 10.543 14.723 14.447 22.792 5.336 10.541 7.709 23.088 10.133 34.605.231 10.523.69 22.212-2.273 32.409-2.97 8.959-7.143 18.465-13.693 25.399-3.643 3.896-7.587 7.98-12.061 10.902-1.725 1.207-3.694 2.264-5.191 3.75-1.776 2.782-2.463 6.34-3.653 9.413-3.415 9.232-7.053 19.28-12.445 27.55-8.45 13.073-23.17 21.906-38.543 23.848-11.248 1.329-22.725 1.267-33.938-.389-19.2-2.24-37.608-9.507-53.392-20.618-2.69-1.846-5.147-4.325-8.078-5.752-2.732.19-5.462 1.329-8.111 2.004-7.552 2.251-14.66 1.918-22.55 3.342-3.958.726-7.918 1.131-11.933 1.362-6.095.321-11.842 2.206-17.992 2.168-9.124.327-18.107-2.012-26.16-6.23-4.79-2.517-8.513-5.909-12.655-9.309-3.679 1.696-7.29 3.52-10.901 5.351-7.925 4.013-16.424 5.987-24.967 8.236.367 11.353-2.793 22.073-9.564 31.207-6.331 9.403-15.729 16.49-26.69 19.517-13.243 3.337-25.707 2.426-39.047 3.725-4.598.217-9.181.14-13.764.687-8.324 1.08-17.03-.337-25.001-2.785-13.584-4.739-25.763-15.615-31.069-29.103-2.815-6.674-3.291-13.366-4.081-20.46-7.192-.462-14.227-1.57-21.336-2.737-3.612-.549-7.174-1.792-10.81-2.066-3.393.31-6.712 1.745-10.037 2.5-12.084 2.973-25.462 5.845-37.923 4.362-14.868-.56-30.741-3.441-43.974-10.507-6.65 6.754-12.078 13.792-20.295 18.89-11.716 7.164-26.183 9.529-39.696 7.725-9.815-1.138-18.903-4.57-28.008-8.196-7.101 6.476-15.265 11.605-24.542 14.303-6.855 2.14-13.394 2.054-20.437 2.9-7.41.965-14.819 1.81-22.135 3.374-20.71 4.2-43.729-4.546-55.75-22.07-2.876-4.115-5.01-8.619-6.784-13.303-5.788 3.617-11.998 6.028-18.254 8.674-13.681 5.83-29.375 7.211-44.09 7.562-7.698-.153-15.416-1.32-22.962-2.803-3.395-.655-6.642-1.999-10.046-2.55-1.22.976-2.252 2.225-3.308 3.372-4.121 4.755-9.78 8.362-14.636 12.401-10.207 8.09-19.992 16.06-33.013 19.108-7.155 1.49-14.866 2.218-22.098.848-10.389-1.777-19.588-5.985-28.853-10.825-4.956 1.83-9.862 3.52-15.13 4.212-6.16.977-11.526-.345-17.983-.32-6.364.027-12.638-1.01-19-.99-7.663-.065-15.234-.976-22.753-2.41-4.83-.959-9.5-.432-14.336.046-6.39.643-12.065-.63-18.395-1.199-10.253-.928-21.343.391-31.456-1.64-7.425-1.347-14.586-4.998-20.79-9.207-3.824-2.563-6.983-5.722-9.773-9.369-6.867-1.065-13.76-1.79-20.57-3.215-3.416-.921-5.864.68-8.996 1.771-10.35 3.854-20.867 6.635-31.927 7.368-5.812.34-11.205 1.137-17.039.708-14.715-1.336-29.144-4.275-42.566-10.638-2.804 6.28-6.06 12.153-10.98 17.044-6.246 6.182-14.145 11.133-22.697 13.336-4.806 1.229-9.86 1.675-14.791 2.122-5.754.499-11.163-.745-16.93-.657-4.682.06-9.346.109-14.016-.323-6.046-.597-11.929.56-17.973-.487-12.423-1.535-24.105-7.662-32.46-16.97-6.624-7.302-10.603-16.09-12.322-25.765-18.658 9.723-38.98 16.496-59.71 20.044-15.127 1.766-30.767 4.265-45.769 2.9-7.528-.664-14.558-.43-21.998-2.172-6.419-1.553-12.623-4.442-18.232-7.898-7.096-4.17-13.029-10.934-18.137-17.305-2.752-6.461-6.074-12.303-7.373-19.054-1.62-9.13-3.303-18.254-5.093-27.352-.89-5.281-1.188-10.575-2.427-15.81-.975-4.284-1.543-8.632-1.947-13.002-.464-6.11-2.51-11.881-3.006-17.995-.513-6.09-2.362-11.91-2.953-17.994-.622-6.1-2.592-11.9-3.028-18.038-.475-6.447-2.627-12.528-3.073-18.977-.463-6.46-2.645-12.561-3.089-19.037-.496-6.145-2.708-11.824-2.967-17.981-.247-4.33-.348-8.689-.085-13.02.343-6.079 2.8-11.99 5.324-17.467 2.92-6.298 7.081-11.967 12.468-16.375 6.97-5.804 15.15-8.785 23.82-11.047 5.988-1.512 12.087-1.397 18.097-2.68 6.05-1.319 12.024-1.844 17.78-4.292 12.036-4.706 24.216-7.557 37.105-8.59 10.65-1.56 21.334-1.469 32.064-1.163 30.956 1.616 61.882 12.933 84.764 34.185 3.786-1.943 7.385-3.829 11.502-5.01 4.567-1.336 9.002-1.533 13.257-3.899 7.997-4.341 17.403-6.838 26.473-7.202 6.938-.174 14.284 2.055 20.952 3.906 5.556 1.547 10.755 3.684 15.49 7.016 2.852-8.388 7.182-16.148 13.562-22.366 3.826-3.985 8.6-6.636 12.558-10.443 4.19-3.963 8.143-8.638 12.583-12.313 5.346-4.435 11.663-7.679 18.41-9.351 4.314-1.13 8.34-1.493 12.193-3.935 7.306-4.876 16.587-7.15 25.1-8.928 8.21-.895 15.952-1.991 24.183-1.49 8.788.45 16.749 3.738 24.105 8.397 7.16 4.01 13.026 9.614 18.062 16.04 7.638-2.492 15.187-5.26 22.84-7.707 2.6-.803 5.215-1.446 7.93-1.696 9.937-.797 19.877.175 28.939 4.553 3.126 1.49 5.853 3.731 9.009 5.126 11.68-.732 22.992-2.985 35.114-1.477 9.454 1.493 17.99 6.026 24.924 12.562 6.263-5.618 13.734-9.673 22.016-11.338 7.574-1.433 15.34-1.904 22.982-2.927 6.7-.998 13.426-.533 20.134-1.334 5.1-.557 10.16-1.256 15.297-1.4 3.45-2.998 7.137-5.658 10.97-8.14 6.03-3.906 11.917-8.321 18.708-10.781 12.97-4.744 27.817-3.814 40.09 2.527 9.816 5.034 18.92 11.6 26.588 19.544q1.804.049 3.609.094c5.941-8.346 13.657-15.15 23.449-18.543 8.236-3.11 16.744-3.106 25.371-2.029 8.711.893 17.475 2.555 25.797 5.3 6.683 2.197 10.096 7.016 17.05 7.245 13.33.852 26.08 7.54 34.08 18.275 6.034 7.954 11.695 16.227 13.683 26.193 1.146 4.909.506 9.908 1.412 14.795-.933 4.404-1.645 8.786-3.273 12.995-1.591 4.18-4.026 7.656-4.973 12.1-1.041 4.803-2.478 8.982-4.72 13.36 7.495-1.232 14.721-1.865 22.215-.17 4.241.525 8.358.301 12.584 1.24 5.541 1.219 10.93 3.078 16.437 4.452 7.364 1.89 14.385 3.893 20.824 8.093 4.43 2.663 8.769 6.489 13.695 8.104 2.472-2.14 4.328-5.046 6.56-7.448 6.817-7.249 13.908-14.029 22.183-19.616 6.537-4.225 13.393-6.565 20.474-9.6 3.964-1.706 8.098-2.78 12.272-3.82.098-9.837-1.028-20.022 2.038-29.26 2.996-9.847 9.198-18.218 17.417-24.352 8.153-7.098 18.384-10.854 29.02-12.15 7.369-.42 14.683-1.233 22.06-1.59 13.688-1.8 27.85-3.495 41.124 1.423 3.432-3.433 6.879-6.706 11.154-9.087 4.257-2.542 8.88-3.988 13.625-5.316 4.297-6.42 8.781-13.504 14.697-18.544 10.644-8.588 23.619-14.042 37.405-14.287 11.322-.658 22.877 2.634 32.684 8.186 3.283 1.766 6.009 4.77 9.41 6.206 2.504-.05 5.073-1.169 7.434-1.944 10.537-3.624 20.868-7.77 31.268-11.758 8.512-3.137 17.41-3.115 26.244-1.52" fill="rgba(255,255,255,1.000)"/><path d="M1310.892 77.405c1.225 5.878 2.441 11.665 5.026 17.131 5.862-1.13 11.83-1.698 17.64-3.049 2.57-.535 5.136-1.088 7.7-1.645-.91 8.711-1.8 17.423-2.759 26.129-.49 4.65-1.172 9.176-.914 13.868 6.729.757 13.473 1.347 20.194 2.174 1.484-14.232 3.31-28.47 4.335-42.74-4.243-.417-8.476-.909-12.694-1.53 4.336-1.532 8.79-2.677 13.12-4.226 6.555-1.831 12.89-4.481 19.256-6.874l1.15-1.908c-2.632-6.201-5.673-12.202-8.287-18.413a58 58 0 0 0-2.665-.098c-13.01 4.452-25.7 9.92-38.838 13.981-7.308 2.786-14.85 4.754-22.264 7.2m-44.217 4.47c-4.047 2.69-8.49 4.63-12.595 7.22 7.936 10.44 15.587 21.145 23.952 31.247 5.718-3.107 10.908-7.022 16.57-10.212l.633-2.177c-5.305-8.316-12.845-15.3-20.346-21.618 3.435-.597 6.624-1.016 9.647-2.892 4.361-2.903 6.858-8.29 5.768-13.496-.518-8.609-10.592-14.462-18.425-11.04-4.926 2.464-8.689 7.373-8.603 13.036.085 3.766 1.75 6.668 3.399 9.932M742.57 84.936c2.49 3.648 5.482 6.792 8.671 9.826 2.924 2.765 5.597 6.167 8.954 8.388 3.044-1.218 5.75-3.596 8.442-5.453 2.733-2.028 5.914-3.755 8.308-6.169.449-3.681-3.94-7.013-6.527-9.012-3.797-2.595-7.8-6.308-12.288-7.482-5.51 2.607-10.313 6.768-15.56 9.902m107.677-6.126c-4.607 25.136-8.765 50.408-13.534 75.507l.947 2.102c5.574 1.053 11.146 2.096 16.742 3.029q.974-.566 1.952-1.13c2.308-12.01 4.05-24.15 6.632-36.104 6.267 4.52 12.144 9.68 18.32 14.297 2.586 1.24 3.93-1.217 5.46-2.806 3.81-4.776 8.357-7.962 10.465-13.696-7.697-4.987-15.877-9.783-24.626-12.648-2.758 2.028-5.336 4.269-8.014 6.396 1.142-10.666 3.611-21.183 5.249-31.784-6.572-.852-13.006-2.444-19.593-3.164M458.069 92.284c1.876-2.781 3.812-5.19 4.718-8.494-2.573-2.36-5.605-3.64-8.847-4.797-1.463 1.567-4.697 3.786-4.626 6.072 2.088 3.446 5.26 5.42 8.755 7.219m-23.063-8.287c1.249 3.492 2.815 6.716 4.681 9.916 2.72-.802 6.783-.997 8.724-3.266-.621-3.041-2.125-6.639-3.945-9.158-3.142-.18-6.542 1.5-9.46 2.508" fill="rgba(255,255,255,1.000)"/><path d="M876.413 90.439c.53 3.25.734 6.587 1.461 9.798 2.938 1.178 6.229 1.583 9.316 2.265q.593-1.739 1.193-3.474c-.45-3.348-.64-6.493-2.423-9.461-3.19.162-6.371.54-9.547.872m333.08 28.681c5.427 4.12 11.33 7.33 17.236 10.683 2.275-1.773 4.5-3.505 6.355-5.738a119 119 0 0 0 13.876-21.095c.927-1.874 1.67-3.807 1.927-5.896-4.219-3.63-10.134-5.435-15.11-7.862-6.056 6.153-10.447 13.816-16.394 20.107-2.94 3.022-5.481 6.348-7.89 9.802m-821.291-5.736.253 2.046c3.526 3.83 6.94 7.762 10.436 11.62 8.065-1.449 12.228-7.186 19.033-10.76 4.728-1.249 9.903-1.265 14.772-1.8-.103 4.621-1.173 6.791-3.961 10.345-4.899-.9-9.764-1.93-14.697-2.634-2.912 3.673-5.574 7.376-7.25 11.802 4.136 1.768 8.125 3.712 12.018 5.966a114.6 114.6 0 0 1-13.634 15.13c-1.358 1.592-3.361 2.365-2.564 4.799 3.077 2.926 6.792 5.777 10.647 7.572 3.776 1.163 7.299-3.17 9.9-5.317 5.025-4.107 9.182-8.989 13.848-13.458a168 168 0 0 0 10.32 4.298c3.974-4.946 7.183-10.337 10.29-15.851a58 58 0 0 0-9.376-5.156c4.138-8.42 8.522-17.461 8.339-27.069.138-5.49-5.4-9.196-10.469-9.032-3.207.235-6.382.75-9.604.85-5.652.194-11.834 1.779-17.447.766-2.324-1.042-4.115-3.693-6.01-5.38-4.17 1.82-6.749 5.733-10.03 8.894-4.47 4.75-9.718 8.362-14.814 12.369m501.494-17.403q3.406 4.976 6.808 9.955c2.868-1.405 6.204-2.787 8.454-5.09-.458-3.394-3.797-6.38-6.41-8.324-2.826-1.293-6.565 2.032-8.852 3.46M477.778 112.42c.889 5.922 2.349 11.737 4.437 17.35 8.519-1.363 17.09-2.166 25.544-3.978-1.339 13.246-3.96 26.447-4.655 39.737 6.739.999 13.523 2 20.309 2.6 1.78-14.162 3.672-28.307 5.499-42.461-4.247-.502-8.485-1.033-12.689-1.823 7.035-2.452 14.328-3.842 21.33-6.392a415 415 0 0 1 11.096-3.852l1.268-1.911c-2.801-6.268-5.215-12.729-8.196-18.909-5.625.52-10.126 2.791-15.458 4.53-8.04 2.654-15.88 5.774-24.056 8.015-8.092 2.56-16.165 5.128-24.43 7.095m184.263-10.896c.664 4.587 1.297 9.092.829 13.74l1.453 3.019c3.943-.389 7.874-.825 11.8-1.365.127 3.066.137 6.102.018 9.167-6.366.88-12.239.766-18.251 3.283.63 1.567 1.264 3.132 1.916 4.69.415 3.49.534 7.24 1.617 10.598.942 1.754 2.722.776 4.319.718 4.085-.81 8.038-2.098 12.186-2.643.953 5.808.761 12.105 2.58 17.7 2.19 5.962 7.907 8.834 14.08 7.889l1.221.699c6.5-.554 13.065-2.01 19.437-1.538 3.373.246 6.483-.546 9.61-1.72-.833-5.767-.86-11.319-2.681-16.914-7.266.74-15.014 2.626-22.25 1.683-.388-3.198-.798-6.392-1.15-9.594l2.541-1.82c3.896-.338 7.78-.771 11.664-1.22 5.84-.546 11.35-2.53 17.178-3.216-.23-5.696-1.412-11.05-2.962-16.509-4.452.492-8.71.783-13.043 1.999-5.335 1.46-11.257 1.765-16.773 2.478-.16-2.38-.373-4.753-.574-7.129 5.061-.825 10.827-.507 15.597-2.438 0-5.39-1.095-10.813-1.664-16.172-5.9.535-11.777 1.647-17.69 1.913-10.268-.332-20.733 1.82-31.008 2.702m89.499 24c2.631 6.592 6.675 12.333 9.732 18.738 7.652-1.875 14.86-4.753 22.04-7.955 11.613-5.32 21.765-12.534 32.1-19.922-2.509-5.792-5.876-11.201-8.854-16.763-2.785 1.057-5.342 2.517-7.93 3.973-15.296 8.16-31.07 15.31-47.088 21.93m-170.661-23.332c.29 4.615.725 9.212 1.239 13.807-4.394-.323-8.677-.267-13.068.063.438 5.971.188 11.922.17 17.898 5.042 1.103 10.224-.513 15.128.641.936 4.115.772 8.418 1.635 12.566 1.219 5.907 1.749 11.915 2.928 17.832.874 4.452 1.137 9.762 3.343 13.782 5.477.937 11.496-1.082 16.853-2.19-.744-8.38-.976-16.92-2.574-25.186-1.249-5.758-1.63-11.578-1.92-17.447 4.094-.306 8.12-.36 12.214.001-1.488 3.809-3.248 7.342-5.352 10.846 3.526 3.076 7.071 6.124 10.798 8.958 4.68-3.302 9.137-6.237 12.28-11.17 4.077-6.042 7.517-12.9 6.082-20.41-1.432-4.095-5.459-5.976-9.59-6.099-9.634-.453-19.331.08-28.983.027-.507-4.371-.465-9.163-1.87-13.353-.632-2.056-2.412-1.698-4.156-1.844-5.05.036-10.133.772-15.157 1.278m553.449 68.984c-8.806-1.577-17.333-3.109-26.34-2.199-15.284.964-30.3 8.049-40.554 19.467-8.131 9.499-13.329 21.2-15.12 33.566-.56 4.1-.965 8.233-1.11 12.369.744 11.414 3.775 22.567 10.34 32.052 12.646 19.48 35.693 30.065 58.627 29.484 4.735.23 9.237-.726 13.817-1.75 9.514-1.784 18.677-5.983 26.616-11.475 4.472 2.447 8.135 5.216 12.704 6.96 5.94 2.266 12.348 3.6 18.69 3.955 3.297.277 5.33-.775 6.712-3.805 3.444-8.514 5.693-17.626 8.853-26.25.822-2.5 1.9-5.478.902-8.068-2.95-2.742-7.466-3.526-10.295-6.71-4.952-5.71-6.392-13.689-7.88-20.867-2.208-11.65-1.1-23.211-2.41-34.918-.073-11.335-.89-22.6-.46-33.943-.786-11.981-.43-24.031-1.261-35.993.145-6.143.143-12.161-.414-18.291-2.45-1.09-4.944-1.914-7.616-2.266-9.375.583-18.756 1.606-28.106 2.474-4.189.414-8.71.383-12.774 1.5-1.606.47-3.613 1.864-3.755 3.673-.744 8.044.295 15.845.516 23.83-.42 12.422.621 24.78.318 37.205m280.132-64.668c-7.621.978-14.345 4.866-19.715 10.244-4.187 4.267-6.638 10.404-7.866 16.169-1.51 9.963 1.433 20.426 8.41 27.786 3.956 3.973 9.16 6.775 14.45 8.524 8.909 2.52 18.69 1.034 26.488-3.952 8.097-5.561 13.515-14.483 14.334-24.308-.013-4.331-.271-8.902-1.578-13.05-2.915-7.621-8.386-14.33-15.73-18.05-5.709-2.878-12.436-4.276-18.793-3.362M70 135.1c-2.695 5.57.458 9.924.836 15.866.413 7.513 2.928 14.572 3.444 22.053.4 5.79 2.324 11.249 2.868 17.005.673 8.088 2.924 15.882 3.957 23.937 1.912 7.98 1.952 16.184 3.953 24.128 1.622 6.58 1.33 13.311 3.01 19.894 1.084 4.283 1.54 8.635 2.047 13.01 1.755 10.556 4.29 21.027 5.454 31.671 2.063 4.427 5.268 7.385 10.239 7.98 22.377 2.044 44.501 1.08 66.035-5.839 11.047-2.97 21.655-7.663 31.472-13.512 15.725-9.104 29.75-22.69 37.775-39.118 4.1-8.815 7.464-18.493 8.365-28.22.745-10.671.708-21.084-1.727-31.563-1.48-6.245-2.839-12.844-5.23-18.779-3.297-8.294-6.323-16.162-11.713-23.397-5.06-6.707-11.211-13.16-18.417-17.565-7.721-4.966-16.067-8.862-24.988-11.108-25.286-6.344-52.412-4.564-76.48 5.567-4.757 2.115-9.456 2.158-14.465 3.319-8.839 2.244-17.763 1.48-26.434 4.67m224.666 15.7c-3.987-3.04-7.746-5.604-13.039-5.108-7.095.286-11.678 8.752-10.393 15.138 1.062 5.02 7.019 7.891 10.985 10.414-3.612 1.57-7.67 2.616-9.633 6.37-2.613 4.819-2.625 12.124 2.15 15.68 3.778 2.866 9.65 4.699 14.2 2.691 3.209-1.26 5.174-3.862 7.402-6.346.69 3.345.974 7.043 3.306 9.73 3.292 4.174 9.32 5.209 14.303 4.471 5.66-.982 9.342-7.375 8.98-12.794-.303-3.818-2.749-7.044-4.847-10.094 4.183.416 8.937 1.169 12.753-1.067 7.588-4.375 6.922-18.054-1.126-21.65-3.645-1.923-7.858-.983-11.735-.494 1.22-2.87 3.129-6.373 2.829-9.549-1.464-9.17-13.742-14.545-21.231-8.631-3.956 2.796-4.134 6.863-4.904 11.239m935.847 16.821c.589 5.29 1.219 10.495 1.05 15.83-.249 6.5 1.536 12.745 1.152 19.26-.308 6.868 1.422 13.431 1.364 20.288-.107 6.61.953 13.124.871 19.733.256 6.601 1.08 13.063.96 19.692.191 5.894 1.274 11.66 1.137 17.576-.19 5.75.88 11.321 1.271 17.025.216 7.981.308 15.993.764 23.963 1.141 7.917.583 15.838 1.261 23.788 6.346 3.483 12.144 1.748 18.873 1.094 2.61-.25 5.224-.273 7.843-.267 6.117.08 12.001-1.361 18.137-.936 2.798.047 7.408.317 9.408-2.042 1.044-8.99-.36-18.584-.66-27.627-.115-7.01-1.222-13.921-1.162-20.94 11.505.967 23.62 2.518 34.817-.414 7.628-2.054 15.842-3.636 22.644-7.486 7.858-4.452 15.172-8.853 20.74-16.155 10.071-11.502 14.558-26.8 14.549-41.898-.485-6.247-1.102-12.634-2.18-18.807-3.056-13.274-10.942-25.589-20.974-34.709-8.184-7.186-17.701-12.496-28.028-15.93-14.723-4.074-29.787-5.35-44.663-1.205-5.461 1.49-10.124 3.962-15.623 4.905-5.115.867-10.33 1.332-15.521 1.214-6.512-.169-13 1.052-19.58 1.531-3.063.157-5.747 1.141-8.45 2.517m-447.729 4.98c-15.266 2.484-29.65 10.841-40.344 21.885-8.906 9.932-14.771 22.37-15.894 35.738-1.18 8.358-.14 16.228 1.926 24.33 2.502 16.95 13.602 31.96 27.841 41.118 11.25 6.566 24.682 10.642 37.783 9.661 6.203-.343 12.379-1.59 18.4-3.07 14.263-4.14 27.034-12.96 37.17-23.687 9.401-10.428 16.407-24.374 17.135-38.553.375-6 .265-11.938-1.127-17.813-1.173-5.428-3.395-10.214-5.659-15.243-3.012-6.918-8.327-13.05-13.334-18.63-7.93-7.783-17.99-13.66-28.854-16.185-11.602-3.211-23.481-2.548-35.043.449m616.155 6.697c-.314 3.593-.41 7.177.145 10.754 1.044 6.455.776 12.94 2.321 19.336 1.276 8.133 1.276 16.322 3.105 24.407.772 11.458 2.925 22.833 4.57 34.205.893 7.157.337 15.292 2.79 22.077.592 2.041 2.178 2.737 3.717 3.982 3.461-1.312 6.697-2.04 10.414-2.125 6.452-.128 12.613-1.838 19.021-2.335 4.825-.511 10.243-.485 14.822-2.05 1.294-.471 2.68-1.155 2.931-2.66.936-5.394-.582-11.631-1.468-16.99-.777-4.627-.895-9.282-1.444-13.926-.433-3.695-1.495-7.21-1.744-10.936-.34-8.684-2.148-17.23-3.275-25.848-1.943-8.562-1.093-17.32-3.092-25.83-1.458-6.449-.013-12.317-3.57-18.28-5.626.843-11.312.807-16.944 1.519-10.725 1.872-21.58 2.75-32.298 4.7m-972.376 6.236c-9.586-1.47-18.994-2.455-28.643-.725-16.417 2.327-31.617 11.386-41.053 25.078-7.534 11.758-10.917 25.411-11.052 39.29.433 8.561 2.139 17.342 5.988 25.059 6.93 14.476 19.491 25.666 34.336 31.584 8.57 3.092 17.71 5.39 26.887 4.853 5.468-.33 10.503-.19 15.797-1.814 5.363-1.683 10.448-2.852 15.431-5.538 4.14-2.101 7.907-4.94 12.114-6.883 2.026-1.241 4.06.436 5.95 1.2 6.888 3.833 14.914 5.569 22.716 6.148 3.433.34 6.808-1.291 7.96-4.676 2.922-7.766 4.765-15.955 7.33-23.848.9-2.917 2.122-5.924 2.469-8.961-2.894-3.459-8.421-4.04-11.486-7.616-6.82-8.272-7.058-17.872-9.035-27.926-1.18-8.748-1.227-17.662-1.835-26.47-.493-5.945-.044-11.87-.19-17.814-.033-3.031-1.523-5.233-3.046-7.701-3.512.177-7.019.383-10.51.819-6.55.845-13.146.748-19.702 1.529-7.395.91-13.914-.085-20.426 4.412m1154.427 91.466c-8.034-1.724-15.963-.02-23.848-2.209-9.773-2.573-18.332-9.082-22.49-18.42-3.067-5.825-3.109-12.011-2.575-18.42.308-3.31 1.87-6.513 3.55-9.336 4.153-7.134 13.655-10.773 21.419-7.705 4.032 1.68 6.064 4.901 8.587 8.234-1.476 1.533-2.428 3.36-4.597 3.875-4.89 1.302-9.658 2.238-14.088 4.856 1.364 5.558 2.739 11.103 4.49 16.556 1.053 3.207 1.76 6.787 3.434 9.73 1.996 1.99 5.332 1.757 7.91 1.53 6.52-.733 12.957-1.03 19.377-2.508 8.04-1.876 15.733-2.723 22.837-7.266 4.884-3.008 8.125-8.25 8.83-13.921 1.341-12.113-1.583-24.727-7.457-35.35-5.68-11.36-16.96-19.79-29.219-22.807a149 149 0 0 0-16.12-2.645c-7.917-.79-15.12.838-22.852 2.093-13.066 2.18-25.716 8.372-34.992 17.906-9.634 9.344-15.384 22.57-17.024 35.776-.336 8.207-.821 17.302 1.566 25.214 3.619 14.191 11.987 27.555 24.11 35.975 15.869 11.963 36.357 15.531 55.79 13.43 4.426-.986 5.619-4.967 7.347-8.593 2.518-6.22 5.442-12.488 7.03-19.019.688-2.574-.35-4.533-1.015-6.976m-700.033-72.854c.026 4.127.228 8.25.625 12.358.571 6.252 2.534 12.188 2.744 18.499.227 6.94 2.697 13.367 3.16 20.271.319 5.292 1.263 10.494 1.778 15.764.599 6.727 2.456 13.208 2.858 19.964.37 6.425 2.33 12.541 2.741 18.955.318 4.6 1.07 9.127 1.87 13.663 7.241 2.016 15.757-1.026 23.264-1.338 7.35-.205 14.196-2.86 21.531-2.975 2.44-.009 4.303-1.164 6.388-2.258.348-8.132-2.201-15.636-2.74-23.653-.497-5.85-1.924-11.54-2.346-17.401-.294-3.743-1.007-7.406-1.692-11.09-1.072-5.622-.882-11.316-2.207-16.913-1.05-4.451-1.883-8.795-1.54-13.396 7.735-1.307 15.639.258 21.883 5.115 4.85 4.152 8.55 9.863 10.08 16.085.83 3.097 1.76 6.163 2.628 9.249 1.575 5.557 1.526 10.797 3.907 16.16 2.052 4.571 4.772 9.062 7.84 13.024 3.744 4.891 9.12 8.475 14.341 11.633 6.387 3.869 14.39 6.604 21.915 5.89 3.795-.355 5.963-2.785 8.31-5.472 4.856-5.762 10.744-10.808 15.283-16.77 1.618-1.939 1.953-5.275.105-7.154-2.842-2.88-6.706-4.543-9.589-7.456-5.137-5.018-7.726-11.276-9.779-18.027-2.15-7.391-2.484-15.858-5.46-22.89-2.746-6.455-5.116-12.69-9.902-17.984-4.941-5.454-10.401-11.431-16.928-14.958-9.4-5.142-19.228-8.896-29.998-9.727-7.707-.56-16.163-1.335-23.8.069-8.704 1.705-17.166 3.088-25.363 6.668-9.562 4.722-21.965 2.409-31.907 6.095m-352.895-3.367c-1.03 3.745-1.592 7.394-1.386 11.293.192 5.41-.953 10.565-1.213 15.923-.058 8.427-.752 16.804-.867 25.234-1.337 8.89-1.501 17.647-1.808 26.604-.564 4.698-1.185 9.348-1.19 14.092.171 9.813-2.075 19.11-.679 28.955 3.691.371 7.38.787 11.079 1.077 5.565.502 11.071-.083 16.623.772 6.435 1.128 12.842.895 19.332 1.007 2.113-6.106 2.556-12.468 2.319-18.881-.244-6.295 1.518-12.303 1.262-18.61-.253-6.3.96-12.46.928-18.77-.063-7.228 1.542-14.253 1.273-21.482.17-2.225-.415-4.46 1.522-6.022 4.84.688 9.404 3.663 11.902 7.885 2.405 3.898 2.971 8.815 3.649 13.282.997 6.35-.64 12.133-.417 18.486.19 5.888-.854 11.565-1.387 17.392-.47 4.694.093 9.345-.493 14.03-.327 3.606-1.197 7.422-.822 11.032.523 2.534 3.038 3.356 5.311 3.58 5.251.42 10.499-.089 15.75.632 5.73.775 11.472.18 17.201.913 3.408.448 6.563.476 9.97.007 1.008-3.188 1.784-6.289 1.53-9.668-.414-6.273 1.27-12.246 1.135-18.502-.152-5.692.735-11.317.575-17.007-.167-7.421 1.787-14.57 1.635-22.013-.078-5.057.296-9.925 1.097-14.914 5.987.97 9.88 4.199 12.338 9.659 2.517 6.835 2.88 13.775 2.462 20.977-.484 11.784-.302 22.934 4.674 33.89 4.361 9.773 12.387 18.274 22.186 22.686 3.668 1.748 7.395 1.989 11.367 2.441 7.26-5.317 14.502-10.717 21.496-16.38 1.914-1.738 4.513-4.1 3.232-6.96-1.71-3.363-5.045-5.74-7.022-9-3.963-6.488-5.712-13.867-5.824-21.43-.114-8.13.674-15.91-.712-24.022-1.387-10.309-5.445-20.107-11.41-28.599-6.73-9.006-15.951-16.281-26.352-20.578-7.295-2.959-14.992-5.208-22.814-6.186-10.925-1.148-21.7-.274-32.475 1.671-2.68.49-5.422 1.382-8.147 1.471-2.404-.327-4.74-1.66-6.982-2.558-13.229-5.413-26.854-6.053-40.95-5.072-5.928.515-10.887 2.596-16.958 2.034-3.991-.37-7.93-.703-11.94-.371m-256.748 16.265c-.487 7.717-1.54 15.28-1.234 22.958.12 3.842-.082 7.661-.464 11.484-.64 5.858.416 11.654-.37 17.517-.823 7.088.123 14.144-.714 21.227-.614 5.61.363 11.159-.315 16.769-.835 7.02-.66 14.052-.369 21.098-.003 1.59 1.758 2.84 2.699 3.993 7.013-1.682 13.187.248 20.274.057 9.222-.396 18.244 1.103 27.483.303 3.354-10.36.916-20.061 2.224-30.504.92-7.568-.168-15.113.809-22.689.714-5.438-.032-10.81.295-16.243.975-11.248.495-22.604.738-33.88.365-3.793.575-7.467-.204-11.232-7.74-.71-15.744-1.823-23.496-1.373-8.895.312-18.666-1.576-27.356.515" fill="rgba(255,255,255,1.000)"/><path d="M1371.994 56.224q1.332.019 2.665.098c2.614 6.211 5.655 12.212 8.286 18.413l-1.15 1.908c-6.366 2.393-12.7 5.043-19.255 6.874-4.33 1.549-8.784 2.694-13.12 4.226 4.218.621 8.451 1.113 12.694 1.53-1.025 14.27-2.85 28.508-4.335 42.74-6.721-.827-13.465-1.417-20.194-2.174-.258-4.692.424-9.218.914-13.868.96-8.706 1.85-17.418 2.76-26.129a925 925 0 0 1-7.7 1.645c-5.811 1.351-11.78 1.92-17.64 3.05-2.586-5.467-3.802-11.254-5.027-17.132 7.415-2.446 14.956-4.414 22.264-7.2 13.139-4.06 25.828-9.53 38.838-13.98" fill="rgba(132,77,147,1.000)"/><path d="M1290.304 69.947c1.09 5.206-1.407 10.593-5.768 13.496-3.023 1.876-6.212 2.295-9.647 2.892 7.5 6.319 15.04 13.302 20.346 21.618l-.633 2.177c-5.662 3.19-10.852 7.105-16.57 10.212-8.365-10.102-16.016-20.806-23.952-31.247 4.106-2.59 8.548-4.53 12.595-7.22-1.649-3.264-3.314-6.166-3.399-9.932-.086-5.663 3.677-10.572 8.603-13.036 7.833-3.422 17.907 2.431 18.425 11.04" fill="rgba(191,121,208,1.000)"/><path d="M1270.95 72.833c1.43 1.398 2.858 2.8 4.288 4.197q2.304-.2 4.608-.392c.834-1.672 2.653-3.69 2.487-5.59-.814-1.912-2.668-3.44-4.048-4.96-1.51.553-3.107 1.006-4.537 1.753-1.225 1.421-1.944 3.336-2.798 4.992" fill="rgba(191,121,208,1.000)"/><path d="M1278.285 66.087c1.38 1.52 3.234 3.05 4.048 4.962.166 1.9-1.653 3.917-2.487 5.59q-2.304.19-4.608.391c-1.43-1.398-2.858-2.8-4.288-4.197.854-1.656 1.573-3.57 2.798-4.992 1.43-.747 3.026-1.2 4.537-1.754" fill="rgba(255,255,255,1.000)"/><path d="M758.13 75.034c4.487 1.174 8.491 4.887 12.288 7.482 2.588 1.999 6.976 5.331 6.527 9.012-2.394 2.414-5.575 4.141-8.308 6.17-2.691 1.856-5.398 4.234-8.442 5.452-3.357-2.221-6.03-5.623-8.954-8.388-3.189-3.034-6.18-6.178-8.67-9.826 5.246-3.134 10.048-7.295 15.56-9.902" fill="rgba(191,121,208,1.000)"/><path d="M850.247 78.81c6.587.719 13.02 2.311 19.593 3.163-1.638 10.601-4.107 21.118-5.249 31.784 2.678-2.127 5.256-4.368 8.014-6.396 8.749 2.865 16.93 7.66 24.626 12.648-2.108 5.734-6.655 8.92-10.464 13.696-1.53 1.59-2.875 4.046-5.462 2.806-6.175-4.617-12.052-9.778-18.319-14.297-2.582 11.955-4.324 24.094-6.632 36.104l-1.952 1.13c-5.596-.933-11.168-1.976-16.742-3.029l-.947-2.102c4.77-25.1 8.927-50.37 13.534-75.508" fill="rgba(132,77,147,1.000)"/><path d="M453.94 78.993c3.242 1.158 6.274 2.437 8.847 4.797-.906 3.305-2.842 5.713-4.718 8.494-3.496-1.799-6.667-3.773-8.755-7.22-.07-2.285 3.163-4.504 4.626-6.071" fill="rgba(192,122,208,1.000)"/><path d="M444.466 81.489c1.82 2.519 3.324 6.117 3.945 9.158-1.941 2.269-6.004 2.464-8.724 3.266-1.866-3.2-3.432-6.424-4.68-9.916 2.917-1.008 6.317-2.688 9.459-2.508" fill="rgba(192,123,209,1.000)"/><path d="M885.96 89.567c1.783 2.968 1.973 6.113 2.423 9.46q-.6 1.737-1.193 3.475c-3.087-.682-6.378-1.087-9.316-2.265-.727-3.21-.93-6.548-1.461-9.798 3.176-.332 6.357-.71 9.547-.872" fill="rgba(132,77,147,1.000)"/><path d="M1233.776 89.212c4.977 2.427 10.892 4.232 15.111 7.862-.257 2.089-1 4.022-1.927 5.896a119 119 0 0 1-13.876 21.095c-1.856 2.233-4.08 3.965-6.355 5.738-5.906-3.354-11.809-6.563-17.236-10.682 2.409-3.454 4.95-6.78 7.89-9.802 5.947-6.291 10.338-13.954 16.393-20.107m-820.73 2.909c1.895 1.688 3.686 4.34 6.01 5.38 5.613 1.014 11.795-.571 17.447-.764 3.222-.1 6.397-.616 9.604-.85 5.07-.165 10.607 3.54 10.469 9.031.183 9.608-4.201 18.649-8.339 27.069a58 58 0 0 1 9.376 5.156c-3.107 5.514-6.316 10.905-10.29 15.85a168 168 0 0 1-10.32-4.297c-4.666 4.47-8.823 9.35-13.848 13.458-2.601 2.148-6.124 6.48-9.9 5.317-3.855-1.795-7.57-4.646-10.647-7.572-.797-2.434 1.206-3.207 2.564-4.799a114.6 114.6 0 0 0 13.634-15.13c-3.893-2.254-7.882-4.198-12.017-5.966 1.675-4.426 4.337-8.129 7.249-11.802 4.933.704 9.798 1.733 14.697 2.634 2.788-3.554 3.858-5.724 3.961-10.344-4.87.534-10.044.55-14.772 1.799-6.805 3.574-10.968 9.311-19.033 10.76-3.497-3.858-6.91-7.79-10.436-11.62l-.253-2.046c5.096-4.007 10.344-7.618 14.814-12.37 3.281-3.16 5.86-7.074 10.03-8.894" fill="rgba(191,121,208,1.000)"/><path d="M898.549 92.523c2.612 1.943 5.95 4.93 6.41 8.323-2.251 2.304-5.587 3.686-8.455 5.09q-3.402-4.978-6.808-9.954c2.287-1.427 6.026-4.752 8.853-3.46m-356.829.259c2.982 6.18 5.396 12.64 8.197 18.909l-1.268 1.911a415 415 0 0 0-11.097 3.852c-7 2.55-14.294 3.94-21.329 6.392 4.204.79 8.442 1.32 12.689 1.823-1.827 14.154-3.719 28.3-5.5 42.46-6.785-.599-13.569-1.6-20.308-2.6.694-13.29 3.316-26.49 4.655-39.736-8.454 1.812-17.025 2.615-25.544 3.978-2.088-5.613-3.548-11.428-4.437-17.35 8.264-1.966 16.337-4.534 24.43-7.094 8.174-2.241 16.015-5.361 24.055-8.015 5.332-1.739 9.833-4.01 15.458-4.53m169.017 4.129c.57 5.359 1.664 10.782 1.664 16.172-4.77 1.93-10.536 1.613-15.597 2.438.2 2.376.414 4.75.574 7.129 5.516-.713 11.438-1.019 16.773-2.478 4.333-1.216 8.59-1.507 13.043-1.999 1.55 5.458 2.732 10.813 2.962 16.509-5.828.686-11.338 2.67-17.178 3.216-3.883.449-7.768.882-11.664 1.22l-2.54 1.82c.35 3.202.76 6.396 1.15 9.594 7.235.943 14.983-.942 22.249-1.683 1.82 5.595 1.848 11.147 2.682 16.914-3.128 1.174-6.238 1.966-9.61 1.72-6.373-.473-12.938.984-19.438 1.538l-1.22-.7c-6.174.946-11.89-1.926-14.081-7.887-1.819-5.596-1.627-11.893-2.58-17.701-4.148.545-8.1 1.834-12.186 2.643-1.597.058-3.377 1.036-4.32-.718-1.082-3.359-1.2-7.107-1.616-10.597a358 358 0 0 1-1.916-4.691c6.012-2.517 11.885-2.404 18.251-3.283.119-3.065.11-6.101-.018-9.167-3.926.54-7.857.976-11.8 1.365l-1.453-3.019c.468-4.648-.165-9.153-.83-13.74 10.276-.881 20.74-3.034 31.008-2.702 5.914-.266 11.792-1.378 17.69-1.913" fill="rgba(132,77,147,1.000)"/><path d="M806.557 99.623c2.978 5.562 6.345 10.971 8.855 16.763-10.336 7.388-20.488 14.602-32.101 19.922-7.18 3.202-14.388 6.08-22.04 7.955-3.057-6.405-7.1-12.146-9.732-18.738 16.018-6.619 31.792-13.77 47.089-21.929 2.587-1.456 5.144-2.916 7.93-3.973m-210.523 1.293c1.744.146 3.524-.212 4.155 1.844 1.406 4.19 1.364 8.982 1.871 13.353 9.652.052 19.349-.48 28.983-.027 4.131.123 8.158 2.004 9.59 6.1 1.435 7.508-2.005 14.367-6.081 20.41-3.144 4.932-7.602 7.867-12.281 11.169-3.727-2.834-7.272-5.882-10.798-8.958 2.104-3.504 3.864-7.037 5.352-10.846-4.094-.36-8.12-.307-12.213 0 .289 5.868.67 11.688 1.92 17.446 1.597 8.266 1.829 16.807 2.573 25.186-5.357 1.108-11.376 3.127-16.853 2.19-2.206-4.02-2.47-9.33-3.343-13.782-1.18-5.917-1.71-11.925-2.928-17.832-.863-4.148-.7-8.451-1.635-12.566-4.904-1.154-10.086.462-15.127-.64.017-5.977.267-11.928-.17-17.899 4.39-.33 8.673-.386 13.067-.063-.514-4.595-.948-9.192-1.239-13.807 5.024-.506 10.107-1.242 15.157-1.278" fill="rgba(191,121,208,1.000)"/><path d="M1178.128 102.496c3.027 6.723 5.29 13.717 8.03 20.557.83 11.962.475 24.012 1.26 35.993-.429 11.343.388 22.608.461 33.943 1.31 11.707.202 23.268 2.41 34.918 1.488 7.178 2.928 15.157 7.88 20.867 2.83 3.184 7.345 3.968 10.295 6.71.997 2.59-.08 5.568-.902 8.067-3.16 8.625-5.41 17.737-8.853 26.25-1.383 3.031-3.415 4.083-6.711 3.806-6.343-.356-12.75-1.69-18.69-3.955-4.57-1.744-8.233-4.513-12.705-6.96-7.939 5.492-17.102 9.69-26.616 11.475-4.58 1.024-9.082 1.98-13.817 1.75-1.667-.303-3.326-.692-4.98-1.061-2.892-5.424-5.638-10.688-9.643-15.408-6.156-7.371-13.871-13.68-21.398-19.606-5.404-4.045-11.512-6.92-16.725-11.273-5.801-4.706-11.654-8.154-16.22-14.188.144-4.136.549-8.27 1.11-12.37 1.79-12.365 6.988-24.066 15.119-33.565 10.254-11.418 25.27-18.503 40.555-19.467 9.006-.91 17.533.622 26.34 2.199.302-12.424-.74-24.783-.32-37.205-.22-7.985-1.26-15.786-.515-23.83.142-1.809 2.149-3.204 3.755-3.673 4.063-1.117 8.585-1.086 12.774-1.5 9.35-.868 18.73-1.89 28.106-2.474" fill="rgba(225,126,255,1.000)"/><path d="M1141.87 250.627c-.742-9.927-3.506-19.652-4.253-29.61-.45-3.14-.154-6.602-2.928-8.71-4.932-4.072-12.78-6.011-18.723-3.126-9.006 4.015-15.093 13.932-14.708 23.782-.055 5.965 2.522 11.9 6.49 16.284 4.624 5.043 11.537 7.166 18.259 6.506 5.835-.217 10.756-2.56 15.863-5.126" fill="rgba(225,126,255,1.000)"/><path d="M1178.128 102.496c2.672.352 5.165 1.175 7.616 2.266.557 6.13.559 12.148.414 18.29-2.74-6.839-5.003-13.833-8.03-20.556" fill="rgba(233,160,255,1.000)"/><path d="M952.189 104.825c2.963 4.91 5.983 9.601 7.549 15.193 2.538 7.737 1.938 15.108 1.7 23.092-7.494-1.695-14.72-1.062-22.216.17 2.243-4.378 3.68-8.557 4.72-13.36.948-4.444 3.383-7.92 4.974-12.1 1.628-4.21 2.34-8.591 3.273-12.995" fill="rgba(187,165,190,1.000)"/><path d="M1414.459 106.51c6.357-.913 13.084.485 18.793 3.363 7.344 3.72 12.815 10.429 15.73 18.05 1.307 4.148 1.565 8.719 1.578 13.05-.82 9.825-6.237 18.747-14.334 24.308-7.797 4.986-17.58 6.473-26.488 3.952-5.29-1.75-10.494-4.551-14.45-8.524-6.977-7.36-9.92-17.823-8.41-27.786 1.228-5.765 3.679-11.902 7.866-16.17 5.37-5.377 12.094-9.265 19.715-10.242M187.38 121.543c8.92 2.246 17.267 6.142 24.988 11.108 7.206 4.405 13.358 10.858 18.417 17.565 5.39 7.235 8.416 15.103 11.713 23.397 2.391 5.935 3.75 12.534 5.23 18.78 2.435 10.478 2.472 20.89 1.727 31.563-.9 9.726-4.266 19.404-8.365 28.219-8.025 16.428-22.05 30.014-37.775 39.118-9.817 5.85-20.425 10.542-31.472 13.512-21.534 6.92-43.658 7.883-66.035 5.839q1.578-.35 3.145-.75c-4.15-3.394-8.348-6.775-12.769-9.814q-.316 1.29-.615 2.584c-1.164-10.644-3.699-21.115-5.454-31.67-.507-4.376-.963-8.728-2.047-13.011-1.68-6.583-1.388-13.313-3.01-19.894-2-7.944-2.041-16.148-3.953-24.128-1.033-8.055-3.284-15.849-3.957-23.937-.544-5.756-2.467-11.214-2.868-17.005-.516-7.481-3.03-14.54-3.444-22.053-.378-5.942-3.53-10.295-.835-15.867 8.67-3.19 17.595-2.426 26.434-4.67 5.009-1.16 9.708-1.204 14.465-3.32 24.068-10.13 51.194-11.91 76.48-5.566" fill="rgba(233,160,255,1.000)"/><path d="M144.803 259.388c14.977-.971 30.34-8.031 38.819-20.787 4.024-6.705 7.215-14.678 7.342-22.581.603-13.927-3.784-28.446-12.655-39.285-4.796-6.22-12.797-9.994-20.344-11.532-8.738-1.749-17.18-.198-25.577 2.344-1.135.399-2.189.915-2.992 1.838-.341 3.432.95 7.266 1.617 10.632 1.204 5.31 1.114 10.637 2.098 15.97 2.247 11.376 4.462 22.719 5.893 34.229 2.838 9.91 1.567 19.67 5.799 29.172" fill="rgba(233,160,255,1.000)"/><path d="M1496.907 131.814c1.735 4.603 3.97 9.023 5.948 13.526a191 191 0 0 0-5.675 2.396c.285-5.314.306-10.625-.273-15.922" fill="rgba(188,166,191,1.000)"/><path d="M320.802 148.191c.3 3.176-1.609 6.679-2.83 9.549 3.878-.489 8.091-1.43 11.736.494 8.048 3.596 8.714 17.275 1.126 21.65-3.816 2.236-8.57 1.483-12.753 1.067 2.098 3.05 4.544 6.276 4.846 10.094.363 5.419-3.319 11.812-8.98 12.794-4.981.738-11.01-.297-14.302-4.471-2.332-2.687-2.617-6.385-3.306-9.73-2.228 2.484-4.193 5.086-7.402 6.346-4.55 2.008-10.422.175-14.2-2.691-4.775-3.556-4.763-10.861-2.15-15.68 1.963-3.754 6.021-4.8 9.633-6.37-3.966-2.523-9.923-5.394-10.985-10.414-1.285-6.386 3.298-14.852 10.393-15.138 5.293-.496 9.052 2.069 13.039 5.108.77-4.376.948-8.443 4.904-11.24 7.489-5.913 19.767-.538 21.23 8.632" fill="rgba(250,200,254,1.000)"/><path d="M300.427 157.565c-5.046 1.02-9.208 5.099-9.302 10.422-.686 6.302 4.513 12.3 10.867 12.304 5.672-.074 10.76-4.185 11.515-9.898 1.12-7.261-5.637-14.515-13.08-12.828" fill="rgba(250,200,254,1.000)"/><path d="M1334.351 158.659c10.327 3.433 19.844 8.743 28.028 15.929 10.032 9.12 17.918 21.435 20.974 34.71 1.078 6.172 1.695 12.559 2.18 18.806.01 15.099-4.478 30.396-14.548 41.898-5.57 7.302-12.883 11.703-20.741 16.155-6.802 3.85-15.016 5.432-22.644 7.486-11.198 2.932-23.312 1.381-34.817.413-.06 7.02 1.047 13.931 1.163 20.94.3 9.044 1.703 18.638.66 27.628-2 2.359-6.61 2.09-9.409 2.042-6.136-.425-12.02 1.016-18.137.936-2.62-.006-5.233.016-7.843.267-.887-12.076-1.49-24.01-4.388-35.833-2.566-11.93-7.493-22.713-11.744-34.054-2.025-5.04-2.869-9.87-7.174-13.56.12-6.628-.704-13.09-.96-19.691.082-6.61-.978-13.123-.871-19.733.058-6.857-1.672-13.42-1.364-20.289.384-6.514-1.4-12.758-1.152-19.259.169-5.335-.461-10.54-1.05-15.83 2.703-1.376 5.387-2.36 8.45-2.517 6.58-.48 13.068-1.7 19.58-1.53 5.19.117 10.406-.348 15.521-1.215 5.5-.943 10.162-3.414 15.623-4.905 14.876-4.144 29.94-2.869 44.663 1.206" fill="rgba(233,160,255,1.000)"/><path d="M1287.694 204.771c.58 4.766.885 9.468.812 14.267-.053 5.048.969 9.964 1.054 15 .131 5.455-.245 11.725 1.437 16.947 7.577 2.439 17.394 3.75 24.735-.067 4.038-1.815 7.606-4.388 9.914-8.238 3.668-6.033 4.52-13.841 3.049-20.671-1.575-7.444-6.734-13.842-13.548-17.17-8.752-4.094-18.685-4.207-27.453-.068" fill="rgba(233,160,255,1.000)"/><path d="M300.427 157.565c7.443-1.687 14.2 5.567 13.08 12.828-.755 5.713-5.843 9.824-11.515 9.898-6.354-.004-11.553-6.002-10.867-12.304.094-5.323 4.256-9.402 9.302-10.422m-142.462 7.638c7.547 1.538 15.548 5.313 20.344 11.532 8.871 10.839 13.258 25.358 12.655 39.285-.127 7.903-3.318 15.876-7.342 22.58-8.479 12.757-23.842 19.817-38.82 20.788-4.231-9.501-2.96-19.262-5.798-29.172-1.43-11.51-3.646-22.853-5.893-34.23-.984-5.332-.894-10.66-2.098-15.969-.668-3.366-1.958-7.2-1.617-10.632.803-.923 1.857-1.44 2.992-1.838 8.398-2.542 16.839-4.093 25.577-2.344" fill="rgba(255,255,255,1.000)"/><path d="M817.828 172.15c10.865 2.526 20.923 8.403 28.854 16.186 5.007 5.58 10.322 11.712 13.334 18.63 2.264 5.029 4.486 9.815 5.659 15.243 1.392 5.875 1.502 11.813 1.127 17.813-.728 14.18-7.734 28.125-17.134 38.553-8.54-5.05-17.478-7.851-26.833-11.401-5.808-2.042-10.691-4.66-16.834-5.459 7.579-3.03 13.347-9.254 14.57-17.477.608-5.626.712-11.868-1.643-17.137-2.134-5.188-5.331-10.835-10.391-13.642-6.622-3.775-14.107-3.398-21.07-.822-8.461 3.274-13.455 12.025-14.214 20.793-.696-4.557-1.8-8.775-1.94-13.432-.3-10.482 1.78-20.564 5.192-30.427 1.934-5.846 5.228-10.805 6.28-16.971 11.562-2.997 23.44-3.66 35.043-.45" fill="rgba(233,160,255,1.000)"/><path d="M782.785 172.6c-1.052 6.166-4.346 11.125-6.28 16.971-3.412 9.863-5.493 19.945-5.192 30.427.14 4.657 1.244 8.875 1.94 13.432.262 5.079.367 9.886 2.863 14.48 4.828 11.095 18.318 17.16 29.885 13.805 6.143.799 11.026 3.417 16.834 5.459 9.355 3.55 18.293 6.352 26.833 11.401-10.137 10.727-22.908 19.548-37.17 23.688-6.022 1.479-12.198 2.726-18.4 3.07-13.102.98-26.535-3.096-37.784-9.662-14.24-9.159-25.339-24.167-27.84-41.119-2.068-8.101-3.107-15.971-1.927-24.329 1.123-13.368 6.988-25.806 15.894-35.738 10.694-11.044 25.078-19.4 40.344-21.885" fill="rgba(225,126,255,1.000)"/><path d="M1448.182 173.078c3.558 5.963 2.113 11.831 3.57 18.28 2 8.51 1.15 17.268 3.093 25.83 1.127 8.618 2.936 17.164 3.275 25.848.249 3.725 1.311 7.241 1.744 10.936.55 4.644.667 9.3 1.444 13.926.886 5.359 2.404 11.596 1.468 16.99-.251 1.505-1.637 2.189-2.931 2.66-4.579 1.565-9.997 1.539-14.822 2.05-6.408.497-12.569 2.207-19.021 2.335-3.717.086-6.953.813-10.414 2.125-1.539-1.245-3.125-1.94-3.717-3.982-2.453-6.785-1.897-14.92-2.79-22.077-1.645-11.372-3.798-22.747-4.57-34.205-1.829-8.085-1.829-16.274-3.105-24.407-1.545-6.396-1.277-12.881-2.32-19.336-.556-3.577-.46-7.16-.145-10.754 10.719-1.95 21.573-2.828 32.298-4.7 5.632-.712 11.318-.676 16.943-1.519m-970.979 5.695c1.523 2.468 3.013 4.67 3.046 7.7.146 5.944-.303 11.87.19 17.816.608 8.807.655 17.72 1.835 26.47 1.977 10.053 2.215 19.653 9.035 27.925 3.065 3.576 8.592 4.157 11.486 7.616-.347 3.037-1.57 6.044-2.47 8.96-2.564 7.894-4.407 16.083-7.33 23.85-1.151 3.384-4.526 5.014-7.959 4.675-7.802-.58-15.828-2.315-22.717-6.148-1.889-.764-3.923-2.441-5.95-1.2-4.206 1.943-7.974 4.782-12.113 6.883-4.983 2.686-10.068 3.855-15.43 5.538-5.295 1.624-10.33 1.485-15.798 1.814-9.178.537-18.316-1.76-26.887-4.853-14.845-5.918-27.406-17.108-34.336-31.584-3.85-7.717-5.555-16.498-5.988-25.058.135-13.88 3.518-27.533 11.052-39.29 9.436-13.693 24.636-22.752 41.053-25.08 9.65-1.729 19.057-.743 28.643.726 6.512-4.497 13.03-3.502 20.426-4.412 6.556-.78 13.152-.684 19.702-1.53 3.491-.435 6.998-.64 10.51-.818" fill="rgba(233,160,255,1.000)"/><path d="M436.805 264.228c-4.32-12.157-5.544-25.507-7.986-38.184-3.896-1.974-7.428-3.877-11.924-3.805-6.447-.124-12.562 3.236-16.16 8.537-4.95 7.28-6.075 17.136-2.806 25.32 1.679 3.67 4.157 7.13 7.3 9.686 4.77 3.558 10.875 5.202 16.776 4.172 5.43-.665 10.163-2.958 14.8-5.726m1124.227-83.035c5.31.573 10.91 1.48 16.12 2.645 12.258 3.017 23.538 11.448 29.219 22.806 5.874 10.624 8.798 23.238 7.458 35.35-.706 5.672-3.947 10.914-8.83 13.922-7.105 4.543-14.797 5.39-22.838 7.266-6.42 1.477-12.857 1.775-19.377 2.507-2.578.228-5.914.462-7.91-1.528-1.674-2.944-2.38-6.524-3.435-9.731-1.75-5.453-3.125-10.998-4.489-16.556 4.43-2.618 9.197-3.554 14.088-4.856 2.17-.515 3.121-2.342 4.597-3.875-2.523-3.333-4.555-6.554-8.587-8.234-7.764-3.068-17.266.571-21.419 7.705-1.68 2.823-3.242 6.027-3.55 9.336-.534 6.409-.492 12.595 2.575 18.42 4.158 9.338 12.717 15.847 22.49 18.42 7.885 2.19 15.814.485 23.848 2.209.666 2.443 1.703 4.402 1.014 6.976-1.587 6.531-4.51 12.799-7.029 19.02-1.728 3.625-2.92 7.606-7.347 8.593-19.433 2.1-39.921-1.468-55.79-13.43-12.123-8.42-20.491-21.785-24.11-35.976-2.387-7.912-1.902-17.007-1.566-25.214 1.64-13.205 7.39-26.432 17.024-35.776 9.276-9.534 21.926-15.726 34.992-17.906 7.733-1.255 14.935-2.884 22.852-2.093m-599.003 10.12c10.77.83 20.597 4.585 29.998 9.727 6.527 3.527 11.987 9.504 16.928 14.958 4.786 5.295 7.156 11.53 9.903 17.984 2.975 7.032 3.309 15.499 5.46 22.89 2.052 6.75 4.64 13.01 9.778 18.027 2.883 2.913 6.747 4.575 9.589 7.456 1.848 1.879 1.513 5.215-.105 7.154-4.54 5.962-10.427 11.008-15.283 16.77-2.347 2.687-4.515 5.117-8.31 5.472-7.526.714-15.528-2.021-21.915-5.89-5.222-3.158-10.597-6.742-14.342-11.633-3.067-3.962-5.787-8.453-7.839-13.024-2.38-5.363-2.332-10.603-3.907-16.16-.867-3.086-1.798-6.152-2.628-9.249-1.53-6.222-5.23-11.933-10.08-16.085-6.244-4.857-14.148-6.422-21.882-5.115-.344 4.601.49 8.945 1.539 13.396 1.325 5.597 1.135 11.29 2.207 16.913.685 3.684 1.398 7.347 1.692 11.09.422 5.86 1.849 11.552 2.346 17.401.539 8.017 3.088 15.52 2.74 23.653-2.085 1.094-3.949 2.25-6.388 2.258-7.335.115-14.18 2.77-21.531 2.975-7.507.312-16.023 3.354-23.264 1.338-.8-4.536-1.552-9.063-1.87-13.663-.41-6.414-2.372-12.53-2.74-18.955-.403-6.756-2.26-13.237-2.859-19.964-.515-5.27-1.46-10.472-1.778-15.764-.463-6.904-2.933-13.33-3.16-20.271-.21-6.311-2.173-12.247-2.744-18.499-.397-4.108-.599-8.23-.625-12.358 9.942-3.686 22.345-1.373 31.907-6.095 8.197-3.58 16.659-4.963 25.363-6.668 7.637-1.404 16.093-.63 23.8-.069" fill="rgba(233,160,255,1.000)"/><path d="M597.912 204.187c2.242.899 4.578 2.23 6.982 2.558 2.725-.089 5.466-.981 8.147-1.47 10.774-1.946 21.55-2.82 32.475-1.672 7.822.978 15.519 3.227 22.814 6.186 10.4 4.297 19.621 11.572 26.353 20.578 5.964 8.492 10.022 18.29 11.41 28.599 1.385 8.111.597 15.891.711 24.021.112 7.564 1.861 14.943 5.824 21.43 1.977 3.261 5.312 5.638 7.022 9.002 1.28 2.859-1.318 5.221-3.232 6.958-6.994 5.664-14.236 11.064-21.496 16.381-3.972-.452-7.7-.693-11.367-2.44-9.799-4.413-17.825-12.914-22.186-22.687-4.976-10.956-5.158-22.106-4.674-33.89.418-7.202.055-14.142-2.462-20.977-2.458-5.46-6.35-8.689-12.338-9.659-.8 4.99-1.175 9.857-1.097 14.914.152 7.443-1.802 14.592-1.635 22.013.16 5.69-.727 11.315-.575 17.007.134 6.256-1.549 12.23-1.135 18.502.254 3.38-.522 6.48-1.53 9.668-3.407.469-6.562.441-9.97-.007-5.729-.733-11.47-.138-17.201-.913-5.251-.72-10.499-.212-15.75-.633-2.273-.223-4.788-1.045-5.31-3.58-.376-3.61.494-7.425.821-11.032.586-4.684.022-9.335.493-14.03.533-5.826 1.577-11.503 1.387-17.391-.223-6.353 1.414-12.136.417-18.486-.678-4.467-1.244-9.384-3.65-13.282-2.497-4.222-7.06-7.197-11.901-7.885-1.937 1.562-1.353 3.797-1.522 6.022.269 7.229-1.336 14.254-1.273 21.481.031 6.311-1.181 12.471-.928 18.772.256 6.306-1.506 12.314-1.262 18.609.237 6.413-.206 12.775-2.32 18.881-6.489-.112-12.896.121-19.331-1.007-4.43-5.272-7.86-11.067-11.426-16.928-5.334-9.008-10.378-18.299-14.407-27.968.307-8.957.47-17.714 1.808-26.604.115-8.43.809-16.807.867-25.234.26-5.358 1.405-10.513 1.213-15.923-.206-3.9.356-7.548 1.386-11.293 4.01-.332 7.949 0 11.94.37 6.07.563 11.03-1.518 16.958-2.033 14.096-.98 27.721-.341 40.95 5.072" fill="rgba(225,126,255,1.000)"/><path d="M1315.147 204.84c6.814 3.327 11.973 9.725 13.548 17.169 1.471 6.83.62 14.638-3.049 20.67-2.308 3.851-5.876 6.424-9.914 8.24-7.34 3.816-17.158 2.505-24.735.066-1.682-5.222-1.306-11.492-1.437-16.947-.085-5.036-1.107-9.952-1.054-15 .073-4.799-.232-9.501-.812-14.267 8.768-4.14 18.701-4.026 27.453.069m-180.457 7.466c2.773 2.109 2.476 5.572 2.927 8.71.747 9.959 3.51 19.684 4.253 29.611-5.107 2.566-10.028 4.909-15.863 5.126-6.722.66-13.635-1.463-18.258-6.506-3.969-4.385-6.546-10.32-6.49-16.284-.386-9.85 5.7-19.767 14.707-23.782 5.943-2.885 13.79-.946 18.723 3.125m-326.152 1.153c5.06 2.807 8.257 8.454 10.39 13.642 2.356 5.27 2.252 11.511 1.644 17.137-1.223 8.223-6.991 14.448-14.57 17.477-11.567 3.354-25.057-2.71-29.885-13.805-2.496-4.594-2.6-9.401-2.863-14.48.759-8.768 5.753-17.52 14.214-20.793 6.963-2.576 14.448-2.953 21.07.822" fill="rgba(255,255,255,1.000)"/><path d="M298.672 216.528c7.752-.45 15.755.662 23.496 1.373.779 3.765.569 7.44.204 11.232-.243 11.276.237 22.632-.738 33.88-.327 5.434.42 10.805-.295 16.243-.977 7.576.111 15.121-.809 22.69-1.308 10.442 1.13 20.143-2.224 30.503-9.24.8-18.26-.699-27.483-.303-7.087.19-13.26-1.74-20.274-.057-.94-1.152-2.702-2.403-2.699-3.993-.29-7.046-.466-14.077.369-21.098.678-5.61-.3-11.159.315-16.77.837-7.082-.11-14.138.714-21.226.786-5.863-.27-11.659.37-17.517.382-3.823.583-7.642.464-11.484-.307-7.677.747-15.241 1.234-22.958 8.69-2.09 18.46-.203 27.356-.515" fill="rgba(233,160,255,1.000)"/><path d="M416.895 222.24c4.496-.073 8.028 1.83 11.924 3.804 2.442 12.677 3.665 26.027 7.986 38.184-4.637 2.768-9.37 5.061-14.8 5.726-5.9 1.03-12.006-.614-16.776-4.172-3.143-2.556-5.621-6.015-7.3-9.687-3.269-8.183-2.144-18.039 2.806-25.319 3.598-5.3 9.713-8.66 16.16-8.537" fill="rgba(255,255,255,1.000)"/><path d="M1660.854 225.078c4.395 8.277 6.225 17.144 8.418 26.16 1.795 7.729 1.115 14.908 1.26 22.762.098 5.676-.36 11.299-2.021 16.751-3.211 10.443-7.959 20.222-15.692 28.087-3.538 3.867-7.62 7.111-12 9.971-1.867 1.368-3.718 2.355-4.523 4.672-3.66 10.51-7.41 21.459-12.766 31.247-7.078 12.853-19.434 22.207-33.55 26.039-7.72 2.26-15.059 1.794-22.984 1.924-28.571.781-57.213-9.174-79.086-27.596-7.103 1.682-13.5 4.052-20.884 4.346-6.764.26-13.263 2.12-20.033 2.4-7.826.354-15.263 2.938-23.003 2.582-13.378-.882-26.324-6.136-35.609-15.983-4.008 1.953-7.95 4.036-11.946 6.01-7.504 3.739-16.358 5.672-24.454 7.926-.285 5.725-.197 11.08-1.964 16.61-3.406 10.771-10.73 20.35-19.675 27.15-10.424 7.627-22.772 9.115-35.34 9.405-6.71-.15-13.294 1.09-20 1.01-6.395-.076-12.606 1.282-18.998 1.07-9.265-.247-18.69-2.393-26.73-7.121-9.266-5.612-17.02-13.37-21.333-23.429-3.261-7.234-3.94-14.641-4.596-22.45-9.767.12-19.051-1.709-28.538-3.786-2.641-.6-4.959-.633-7.572.138-12.176 3.453-25.536 6.675-38.236 6.522-5.93-.44-11.84-.966-17.781-1.278-11.094-1.453-22.068-4.52-32.157-9.394-6.841 6.604-13.492 14.912-21.74 19.505-9.268 5.11-19.722 7.715-30.322 7.261-12.944.384-24-3.99-35.834-8.504-7.506 6.485-15.74 11.826-25.418 14.41-7.224 2.41-14.403 1.578-21.741 2.962-6.085 1.038-12.22 1.43-18.254 2.806-13.327 3.009-27.479.91-39.497-5.513-11.442-6.556-20.539-16.917-24.715-29.516-7.384 4.259-15.432 7.564-23.428 10.588-9.105 2.922-18.547 4.71-28.116 5.038-11.137 1.453-22.067.07-33.015-2.014-3.656-.665-7.22-2.17-10.906-2.542-2.102 1.35-3.796 3.462-5.569 5.21-3.823 3.976-8.183 6.8-12.587 10.419-7.403 5.996-14.53 11.628-23.207 15.769-8.558 3.938-18.378 5.274-27.726 4.71-11.455-1.166-22.83-6.005-32.883-11.45-5.315 1.956-10.38 3.883-16.086 4.411-6.563.679-12.486-.753-19.016-.77-3.744-.035-7.48-.153-11.207-.535-6.959-.743-13.825-.17-20.77-1.253-5.385-.621-9.735-2.363-15.035-1.832-6.339.634-12.639.927-18.977.084-6.796-.92-13.61-.635-20.426-1.258-6.726-.547-12.763.28-19.36-1.458-11.432-2.956-21.698-9.388-29.153-18.575-5.99-.536-11.953-1.2-17.838-2.47-2.386-.394-4.643-1.063-6.993-.2-4.075 1.367-8.007 3.1-12.155 4.27-14.287 4.554-29.17 5.83-44.096 5.042-13.84-1.182-27.183-4.696-39.886-10.291-5.509 14.902-18.79 26.705-34.18 30.567-8.708 2.057-17.983 2.323-26.861 1.393-5.981-.58-12.048-.276-18.067-.524-7.268-.304-14.16.517-21.029-.824-9.666-1.727-18.43-6.444-25.816-12.817-8.567-7.92-14.056-18.616-15.77-30.146-3.12 2.163-6.37 4.073-9.908 5.477-5.79 2.3-11.334 4.9-17.227 6.84-12.28 3.923-24.162 7.504-37.04 8.983-5.732.623-11.464 1.243-17.193 1.89-14.056 1.459-27.497.112-41.495-.816-9.987-1.468-19.615-6.12-27.686-12.089-8.801-6.584-15.354-16.31-19.05-26.597-2.458-6.676-2.83-14.075-4.397-21.214 5.108 6.371 11.04 13.135 18.137 17.305 5.61 3.456 11.813 6.345 18.232 7.898 7.44 1.742 14.47 1.508 21.998 2.172 15.002 1.365 30.642-1.134 45.769-2.9 20.73-3.548 41.052-10.321 59.71-20.044 1.719 9.674 5.698 18.463 12.321 25.764 8.356 9.31 20.038 15.436 32.46 16.971 6.045 1.047 11.928-.11 17.974.487 4.67.432 9.334.382 14.017.323 5.766-.088 11.175 1.156 16.929.657 4.932-.447 9.985-.893 14.791-2.122 8.552-2.203 16.451-7.154 22.696-13.336 4.921-4.891 8.177-10.764 10.98-17.044 13.423 6.363 27.852 9.302 42.567 10.638 5.834.429 11.227-.369 17.039-.708 11.06-.733 21.576-3.514 31.927-7.368 3.132-1.092 5.58-2.692 8.996-1.77 6.81 1.424 13.703 2.15 20.57 3.214 2.79 3.647 5.95 6.806 9.774 9.37 6.203 4.208 13.364 7.859 20.789 9.207 10.113 2.03 21.203.711 31.456 1.64 6.33.568 12.006 1.84 18.395 1.198 4.837-.478 9.505-1.005 14.336-.046 7.52 1.434 15.09 2.345 22.752 2.41 6.363-.02 12.637 1.017 19.001.99 6.457-.025 11.824 1.297 17.984.32 5.267-.692 10.173-2.382 15.13-4.212 9.264 4.84 18.463 9.048 28.852 10.825 7.232 1.37 14.943.642 22.098-.848 13.021-3.049 22.806-11.018 33.013-19.108 4.857-4.04 10.515-7.646 14.636-12.401 1.056-1.147 2.088-2.396 3.308-3.372 3.404.551 6.651 1.895 10.046 2.55 7.546 1.482 15.264 2.65 22.962 2.803 14.715-.35 30.409-1.732 44.09-7.562 6.256-2.646 12.466-5.057 18.254-8.674 1.774 4.684 3.908 9.188 6.785 13.303 12.02 17.524 35.04 26.27 55.749 22.07 7.316-1.564 14.724-2.409 22.135-3.374 7.043-.846 13.582-.76 20.437-2.9 9.277-2.698 17.441-7.827 24.542-14.303 9.105 3.627 18.193 7.058 28.008 8.196 13.513 1.804 27.98-.56 39.696-7.725 8.217-5.098 13.644-12.136 20.295-18.89 13.233 7.066 29.106 9.948 43.974 10.507 12.46 1.483 25.84-1.39 37.923-4.362 3.325-.755 6.644-2.19 10.036-2.5 3.637.274 7.2 1.517 10.811 2.066 7.109 1.167 14.144 2.275 21.336 2.738.79 7.093 1.266 13.785 4.081 20.46 5.306 13.487 17.485 24.363 31.069 29.102 7.972 2.448 16.677 3.866 25.001 2.785 4.583-.546 9.166-.47 13.764-.687 13.34-1.299 25.804-.388 39.046-3.725 10.962-3.026 20.36-10.114 26.69-19.517 6.772-9.134 9.932-19.854 9.565-31.207 8.543-2.25 17.042-4.223 24.967-8.236 3.611-1.832 7.222-3.655 10.901-5.35 4.142 3.399 7.864 6.791 12.654 9.308 8.054 4.218 17.037 6.557 26.161 6.23 6.15.038 11.897-1.847 17.992-2.168 4.015-.231 7.975-.636 11.933-1.362 7.89-1.424 14.998-1.09 22.55-3.342 2.649-.675 5.379-1.813 8.11-2.004 2.932 1.427 5.39 3.906 8.079 5.752 15.784 11.111 34.192 18.378 53.392 20.618 11.213 1.656 22.69 1.718 33.938.389 15.372-1.942 30.093-10.775 38.543-23.848 5.392-8.27 9.03-18.318 12.445-27.55 1.19-3.073 1.877-6.63 3.653-9.413 1.497-1.486 3.466-2.543 5.19-3.75 4.475-2.921 8.419-7.006 12.062-10.902 6.55-6.934 10.722-16.44 13.693-25.4 2.964-10.196 2.504-21.885 2.273-32.408" fill="rgba(187,165,190,1.000)"/><path d="M1051.203 234.381c4.567 6.034 10.42 9.482 16.22 14.188 5.214 4.353 11.322 7.228 16.726 11.273 7.527 5.927 15.242 12.235 21.398 19.606 4.005 4.72 6.75 9.984 9.643 15.408 1.654.37 3.313.758 4.98 1.061-22.934.581-45.98-10.005-58.627-29.484-6.565-9.485-9.596-20.638-10.34-32.052" fill="rgba(233,160,255,1.000)"/><path d="M1243.085 275.982c4.251 11.34 9.178 22.124 11.744 34.054 2.898 11.823 3.501 23.757 4.388 35.833-6.729.654-12.527 2.39-18.873-1.094-.678-7.95-.12-15.871-1.26-23.788-.457-7.97-.549-15.982-.765-23.963-.391-5.704-1.46-11.274-1.271-17.025.137-5.917-.946-11.682-1.137-17.576 4.305 3.69 5.15 8.518 7.174 13.56" fill="rgba(225,126,255,1.000)"/><path d="M522.79 279.832c4.03 9.67 9.073 18.96 14.407 27.968 3.566 5.861 6.997 11.656 11.426 16.928-5.552-.855-11.058-.27-16.623-.772-3.699-.29-7.388-.706-11.079-1.077-1.396-9.846.85-19.142.678-28.955.006-4.744.627-9.394 1.191-14.092" fill="rgba(233,160,255,1.000)"/><path d="M96.184 300.08c4.42 3.04 8.618 6.42 12.769 9.815q-1.567.399-3.145.749c-4.97-.595-8.176-3.553-10.239-7.98q.3-1.294.615-2.584" fill="rgba(225,126,255,1.000)"/></svg>